<svg enable-background="new 0 0 128 128" viewBox="0 0 128 128" xmlns="http://www.w3.org/2000/svg" xmlns:xlink="http://www.w3.org/1999/xlink"><linearGradient id="a" gradientUnits="userSpaceOnUse" x1="64.1318" x2="64.1318" y1="46.9999" y2="113.05"><stop offset=".0051299" stop-color="#eee"/><stop offset=".2817" stop-color="#eaeaea"/><stop offset=".5766" stop-color="#ddd"/><stop offset=".8789" stop-color="#c8c8c8"/><stop offset=".9998" stop-color="#bdbdbd"/></linearGradient><path d="m58 52.4c-3.3 0-6-2.7-6-6v-12.4c0-3.3 2.7-6 6-6s6 2.7 6 6v12.4c0 3.3-2.7 6-6 6z" fill="#e53935"/><path d="m58 30c2.2 0 4 1.8 4 4v12.4c0 2.2-1.8 4-4 4s-4-1.8-4-4v-12.4c0-2.2 1.8-4 4-4m0-2c-3.3 0-6 2.7-6 6v12.3c0 3.3 2.7 6 6 6s6-2.7 6-6v-12.3c0-3.3-2.7-6-6-6z" fill="#c62828" opacity=".3"/><path d="m65 40h-14c-2.2 0-4 1.8-4 4 0 2.2 1.8 4 4 4h14c2.2 0 4-1.8 4-4 0-2.2-1.8-4-4-4z" fill="#bdbdbd"/><path d="m65 42c1.1 0 2 .9 2 2 0 1.1-.9 2-2 2h-14c-1.1 0-2-.9-2-2 0-1.1.9-2 2-2zm0-2h-14c-2.2 0-4 1.8-4 4 0 2.2 1.8 4 4 4h14c2.2 0 4-1.8 4-4 0-2.2-1.8-4-4-4z" fill="#424242" opacity=".2"/><path d="m124 80.6c-1.1-5.1-5.1-23.7-6.9-32.3-.6-2.6-2.5-4.4-4.7-4.4-6.3 0-18.1 0-19.5 0h-51.9c-.7 0-3 0-4.8 2-5.5 6.3-14.8 24.2-16.2 26-.1.1-7.4 2.7-10.7 4.7-1.3.8-2.1 2.5-2.2 4.3l-2.9 24.5c-.8 4.8 2 6.8 6.3 6.8h107.7c3.3 0 6-.9 6-6.8v-23.3c0-.5-.1-1-.2-1.5z" fill="url(#a)"/><path d="m124.2 84v16.1h-119.4l1.9-16.1z" fill="#e53935"/><path d="m17.7 89.8-1 4.2c0 1.1-.9 2-2 2h-9.4l1-8.2h9.4c1.1 0 2 .9 2 2z" fill="#ffee58"/><path d="m39.6 56h26.1c1.4 0 2.5 1.1 2.5 2.5v15.1c0 1.4-1.1 2.5-2.5 2.5h-35.5c-2.1 0-3.2-2.4-1.9-4l9.3-15c.5-.8 1.2-1.1 2-1.1z" fill="#546e7a"/><path d="m108 61h-10v-10h-8v10h-10v8h10v10h8v-10h10z" fill="#fff" stroke="#e53935" stroke-miterlimit="10" stroke-width="1.5"/><path d="m112.4 47c.8 0 1.5.9 1.8 2 1.7 8 5.8 27.1 6.9 32.2.1.3.1.6.1.8v23.3c0 1.7-.3 3-.8 3.4-.3.3-1.1.4-2.2.4h-107.7c-1.5 0-2.6-.3-3.1-.8-.5-.6-.4-1.8-.3-2.5v-.1l2.9-24.5c.1-1.1.5-1.8.8-2 2.2-1.3 6.8-3.1 8.9-3.9 1.7-.7 2-.8 2.6-1.5s1.5-2.3 3.5-5.8c3.4-6 9-15.9 12.6-20 .8-.9 1.8-1 2.6-1h51.9 10.9zm.1-3c-6.3 0-18.1 0-19.5 0h-52c-.7 0-3 0-4.8 2-5.5 6.2-14.8 24.1-16.2 25.9-.1.1-7.4 2.7-10.7 4.7-1.3.8-2.1 2.5-2.2 4.3l-2.9 24.5c-.8 4.8 2 6.8 6.3 6.8h107.7c3.3 0 6-.9 6-6.8v-23.3c0-.5-.1-1-.2-1.5-1.1-5.1-5.1-23.7-6.9-32.3-.5-2.5-2.4-4.3-4.6-4.3z" fill="#424242" opacity=".2"/><path d="m65.7 58c.3 0 .5.2.5.5v15.1c0 .3-.2.5-.5.5h-35.5c-.2 0-.4-.2-.4-.3s-.1-.3.1-.5c0-.1.1-.1.1-.2l9.2-14.9c.1-.1.2-.1.3-.1zm0-2h-26.1c-.8 0-1.5.3-1.9.9l-9.3 15c-1.3 1.6-.1 4 1.9 4h35.4c1.4 0 2.5-1.1 2.5-2.5v-15c-.1-1.3-1.2-2.4-2.5-2.4z" fill="#424242" opacity=".2"/><circle cx="26.1" cy="114" fill="#4e342e" r="10"/><path d="m26.1 105c5 0 9 4 9 9s-4 9-9 9-9-4-9-9 4-9 9-9m0-1c-5.5 0-10 4.5-10 10s4.5 10 10 10 10-4.5 10-10-4.5-10-10-10z" fill="#eee" opacity=".2"/><circle cx="26.1" cy="114" fill="#bdbdbd" r="5.7"/><circle cx="106.2" cy="114" fill="#4e342e" r="10"/><path d="m106.2 105c5 0 9 4 9 9s-4 9-9 9-9-4-9-9 4-9 9-9m0-1c-5.5 0-10 4.5-10 10s4.5 10 10 10 10-4.5 10-10-4.5-10-10-10z" fill="#eee" opacity=".2"/><circle cx="106.2" cy="114" fill="#bdbdbd" r="5.7"/></svg>