<svg viewBox="0 0 72 72" xmlns="http://www.w3.org/2000/svg"><path d="m42.5 30.1-3.5-2.4c-.5-.3-1.2-.2-1.5.4l-1.1 2" fill="#f1b31c"/><path d="m64.8 44.7-1.1-.6c-.4-.2-.6-.6-.5-1 .3-1.9.5-8.5-9.7-11.5-.2-.1-.4-.1-.6-.1l-19.6.1c-.4 0-.8.1-1.1.3l-10.3 6.9c-.2.1-.4.2-.6.2-1.9-.1-3.7.1-5.6.4-5.4 1.1-7.6 4-8.4 5.5-.2.3-.2.7-.2 1 .1 2.4-1.5 5.1.9 7.3l19.4-.1 20.4-.5 16.1-.2c.9-.1 2.4-1.4 2.8-2.2 1.7-2.7-1.7-5.4-1.9-5.5z" fill="#fcea2b"/><path d="m17.3 47.1c-2.2 0-4 1.8-4 4s1.8 4 4 4 4-1.8 4-4-1.8-4-4-4z" fill="#9b9b9a"/><path d="m57.1 47.1c-2.2 0-4 1.8-4 4s1.8 4 4 4 4-1.8 4-4-1.8-4-4-4z" fill="#9b9b9a"/><path d="m56.1 40v-4.3c0-.9-.8-1.7-1.7-1.7h-21.2c-.1 0-.2 0-.2.1l-8.6 5.7c-.2.1.4.4.5.6.1.1.2.2.3.2 5.6 0 27.2-.2 30.4-.1.3 0 .5-.2.5-.5 0 .1 0 .1 0 0z" fill="#3f3f3f"/><path d="m8.9 41.2 4 1.6-2.1 2.9-5 .1z" fill="#d0cfce"/><g fill="none" stroke-linecap="round" stroke-linejoin="round"><path d="m42.5 30.1-3.5-2.4c-.5-.3-1.2-.2-1.5.4l-1.1 2" stroke="#000" stroke-miterlimit="10" stroke-width="2"/><path d="m47.6 51.7-20.6.4" stroke="#000" stroke-width="2"/><path d="m8.1 52.1c-.9-.2-1.7-.5-1.8-1-.1-1-.3-3.8-.3-5.1 0-.5.1-1.1.4-1.5 1.1-2 4.8-6.8 14.9-6.4l10.3-6.9c.5-.3 1.1-.5 1.6-.5l19.6-.1c.3 0 .6 0 .9.1 2.2.6 11.7 4 10.4 12.6l1.1.6c.5.2.9.7 1 1.2.4 1.4.3 2.9-.2 4.3" stroke="#000" stroke-width="2"/><path d="m24.9 40.6 30.2-.2v-4.5" stroke="#000" stroke-width="2"/><circle cx="17.3" cy="51.1" r="5" stroke="#000" stroke-width="2"/><circle cx="57.1" cy="51.1" r="5" stroke="#000" stroke-width="2"/><path d="m12.3 43.6-1.8 2.2-3.7-.1" stroke="#000" stroke-width="2"/><path d="m24.1 44.1h26" stroke="#000" stroke-miterlimit="10" stroke-width="2"/><path d="m24.1 44.1h26" stroke="#f1b31c" stroke-miterlimit="10" stroke-width="2.1"/></g></svg>